<?xml version="1.0" standalone="no"?>
<!DOCTYPE svg PUBLIC "-//W3C//DTD SVG 20010904//EN"
 "http://www.w3.org/TR/2001/REC-SVG-20010904/DTD/svg10.dtd">
<svg version="1.0" xmlns="http://www.w3.org/2000/svg"
 width="400.000000pt" height="400.000000pt" viewBox="0 0 400.000000 400.000000"
 preserveAspectRatio="xMidYMid meet">
<metadata>
Created by potrace 1.14, written by Peter Selinger 2001-2017
</metadata>
<g transform="translate(0.000000,400.000000) scale(0.100000,-0.100000)"
fill="#000000" stroke="none">
<path d="M3327 3964 c-26 -20 -79 -80 -116 -133 -115 -161 -141 -181 -373
-281 -54 -23 -123 -57 -154 -76 -31 -19 -59 -34 -61 -34 -14 0 -304 -202 -398
-277 -129 -103 -343 -313 -441 -432 -197 -241 -371 -529 -483 -799 l-40 -97
-48 5 c-115 12 -388 4 -473 -14 -397 -85 -658 -310 -724 -626 -19 -91 -15
-307 8 -387 8 -29 12 -53 10 -53 -2 0 10 -37 27 -82 92 -251 242 -422 469
-534 85 -42 244 -98 310 -109 19 -3 55 -11 80 -16 75 -18 353 -19 460 -3 183
27 390 103 498 181 60 43 136 128 209 233 37 55 72 99 76 100 4 0 22 -14 40
-30 77 -73 296 -155 480 -179 81 -11 316 -15 377 -6 19 2 55 7 80 10 138 16
335 76 451 138 263 139 415 406 405 712 -4 126 -21 208 -61 310 -143 356 -448
574 -815 584 -47 1 -86 4 -87 5 -2 1 -6 43 -10 92 -12 153 -6 375 12 487 3 15
7 42 10 60 24 143 91 343 152 457 96 179 193 280 361 379 159 94 192 122 192
167 0 113 -176 265 -322 279 -49 5 -56 3 -101 -31z m-365 -641 c-79 -116 -211
-472 -247 -668 -20 -115 -27 -440 -11 -532 7 -41 6 -43 -16 -43 -279 -3 -477
-64 -619 -192 -45 -40 -113 -132 -139 -185 -14 -29 -28 -52 -32 -53 -4 0 -63
29 -132 64 -83 44 -141 67 -175 72 -37 5 -51 11 -47 20 29 77 78 185 114 254
24 47 51 99 60 115 30 59 156 242 230 335 157 199 426 445 681 624 110 76 330
214 344 215 5 1 0 -11 -11 -26z"/>
</g>
</svg>
