<?xml version="1.0" standalone="no"?>
<!DOCTYPE svg PUBLIC "-//W3C//DTD SVG 20010904//EN"
 "http://www.w3.org/TR/2001/REC-SVG-20010904/DTD/svg10.dtd">
<svg version="1.0" xmlns="http://www.w3.org/2000/svg"
 width="260.000000pt" height="260.000000pt" viewBox="0 0 260.000000 260.000000"
 preserveAspectRatio="xMidYMid meet">
<metadata>
Created by potrace 1.14, written by Peter Selinger 2001-2017
</metadata>
<g transform="translate(0.000000,260.000000) scale(0.100000,-0.100000)"
fill="#000000" stroke="none">
<path d="M780 2475 l0 -65 -65 0 -65 0 0 -130 0 -130 65 0 65 0 0 -65 0 -65
65 0 65 0 0 -65 0 -65 65 0 65 0 0 -65 0 -65 -65 0 -65 0 0 -65 0 -65 -130 0
-130 0 0 -65 0 -65 -65 0 -65 0 0 -65 0 -65 -65 0 -65 0 0 -65 0 -65 -65 0
-65 0 0 -325 0 -325 65 0 65 0 0 -65 0 -65 65 0 65 0 0 -65 0 -65 65 0 65 0 0
-65 0 -65 260 0 260 0 0 65 0 65 65 0 65 0 0 -65 0 -65 65 0 65 0 0 -65 0 -65
260 0 260 0 0 65 0 65 65 0 65 0 0 65 0 65 65 0 65 0 0 65 0 65 65 0 65 0 0
325 0 325 -65 0 -65 0 0 65 0 65 -65 0 -65 0 0 65 0 65 -65 0 -65 0 0 65 0 65
-130 0 -130 0 0 130 0 130 130 0 130 0 0 65 0 65 65 0 65 0 0 65 0 65 65 0 65
0 0 65 0 65 -65 0 -65 0 0 65 0 65 -65 0 -65 0 0 65 0 65 -195 0 -195 0 0 65
0 65 -65 0 -65 0 0 -65 0 -65 -65 0 -65 0 0 65 0 65 -260 0 -260 0 0 -65z"/>
</g>
</svg>
